<svg id="visual" viewBox="0 0 1500 50" width="1500" height="50" xmlns="http://www.w3.org/2000/svg" xmlns:xlink="http://www.w3.org/1999/xlink" version="1.1"><path d="M0 41L14.7 40.2C29.3 39.3 58.7 37.7 88 35C117.3 32.3 146.7 28.7 176.2 28.3C205.7 28 235.3 31 264.8 32.5C294.3 34 323.7 34 353 33.2C382.3 32.3 411.7 30.7 441 31C470.3 31.3 499.7 33.7 529.2 32.7C558.7 31.7 588.3 27.3 617.8 29C647.3 30.7 676.7 38.3 706 38.7C735.3 39 764.7 32 794 31.2C823.3 30.3 852.7 35.7 882.2 35.5C911.7 35.3 941.3 29.7 970.8 30.5C1000.3 31.3 1029.7 38.7 1059 41.3C1088.3 44 1117.7 42 1147 38.7C1176.3 35.3 1205.7 30.7 1235.2 31.3C1264.7 32 1294.3 38 1323.8 39.5C1353.3 41 1382.7 38 1412 34.8C1441.3 31.7 1470.7 28.3 1485.3 26.7L1500 25L1500 51L1485.3 51C1470.7 51 1441.3 51 1412 51C1382.7 51 1353.3 51 1323.8 51C1294.3 51 1264.7 51 1235.2 51C1205.7 51 1176.3 51 1147 51C1117.7 51 1088.3 51 1059 51C1029.7 51 1000.3 51 970.8 51C941.3 51 911.7 51 882.2 51C852.7 51 823.3 51 794 51C764.7 51 735.3 51 706 51C676.7 51 647.3 51 617.8 51C588.3 51 558.7 51 529.2 51C499.7 51 470.3 51 441 51C411.7 51 382.3 51 353 51C323.7 51 294.3 51 264.8 51C235.3 51 205.7 51 176.2 51C146.7 51 117.3 51 88 51C58.7 51 29.3 51 14.7 51L0 51Z" fill="#f8c2c0" stroke-linecap="round" stroke-linejoin="miter"></path></svg>